<?xml version="1.0" encoding="UTF-8" standalone="no"?>
<svg
   width="1024"
   height="1024"
   version="1.1"
   id="svg27"
   sodipodi:docname="favicon.svg"
   inkscape:version="1.4.2 (ebf0e940d0, 2025-05-08)"
   xmlns:inkscape="http://www.inkscape.org/namespaces/inkscape"
   xmlns:sodipodi="http://sodipodi.sourceforge.net/DTD/sodipodi-0.dtd"
   xmlns="http://www.w3.org/2000/svg"
   xmlns:svg="http://www.w3.org/2000/svg">
  <defs
     id="defs27" />
  <sodipodi:namedview
     id="namedview27"
     pagecolor="#ffffff"
     bordercolor="#000000"
     borderopacity="0.25"
     inkscape:showpageshadow="2"
     inkscape:pageopacity="0.0"
     inkscape:pagecheckerboard="false"
     inkscape:deskcolor="#d1d1d1"
     inkscape:zoom="0.56738281"
     inkscape:cx="512"
     inkscape:cy="512"
     inkscape:window-width="1536"
     inkscape:window-height="790"
     inkscape:window-x="0"
     inkscape:window-y="0"
     inkscape:window-maximized="1"
     inkscape:current-layer="svg27" />
  <path
     fill="#3D3D3D"
     d="M849.302 62.2202C879.351 61.0599 907.52 73.3719 929.633 93.0291C952.564 113.413 965.982 143.203 967.587 173.635C969.226 204.714 957.487 233.629 936.727 256.459C912.248 283.379 880.027 293.423 844.63 295.119C843.911 310.627 840.509 329.633 838.298 345.395L823.677 445.758L776.045 772.958C778.481 773.908 780.88 774.955 783.233 776.095C806.089 787.393 824.099 805.566 832.256 830.064C840.038 853.438 838.772 878.662 827.503 900.685C815.955 923.256 796.345 939.415 772.261 947.053C750.107 954.106 726.056 952.035 705.434 941.3C684.021 930.118 667.262 911.457 660.137 888.223C653.121 865.345 654.646 839.255 666 818.017C657.032 812.204 648.604 805.324 640.126 798.82L601.564 769.436C549.433 730.209 497.806 690.235 445.351 651.44C419.286 633.244 394.412 613.058 369.01 593.941C360.684 587.675 351.992 581.899 343.622 575.687L251.321 507.315C245.579 513.188 238.948 518.529 231.902 522.737C204.891 538.867 173.813 543.818 143.287 535.895C113.812 528.246 88.4162 507.952 73.1789 481.798C57.7234 455.192 53.3586 423.573 61.0278 393.775C69.1545 363.816 88.6958 338.234 115.462 322.513C141.519 307.465 174.486 302.92 203.558 310.892C226.712 317.35 247.223 330.981 262.145 349.827C268.145 357.531 273.067 366.05 277.886 374.52C293.236 369.363 308.376 363.172 323.567 357.537L444.877 311.315L737.335 200.137C736.086 195.115 735.566 190.192 735.304 185.023C733.652 152.384 745.613 122.02 767.475 97.9966C788.038 75.4001 819.261 63.5475 849.302 62.2202Z"
     id="path2" />
  <path
     fill="#FEFEFE"
     d="M778.286 268.289C794.6 280.96 809.306 287.627 829.312 292.752C828.085 297.794 827.741 303.148 827.07 308.29L823.812 331.867L813.492 403.94L775.099 665.651C770.003 699.853 766.007 735.225 759.883 769.135C742.186 768.172 730.618 769.07 713.928 775.018C710.095 768.773 707.134 761.917 704.005 755.302L692.301 730.872L660.035 665.461C647.263 638.762 634.258 612.175 621.02 585.704C626.161 582.561 631.013 578.688 635.409 574.576C652.477 558.607 661.721 537.598 662.449 514.307C663.248 488.751 653.097 467.035 635.793 448.772C640.107 442.046 645.764 435.914 650.718 429.647C660.123 417.547 669.613 405.513 679.186 393.545L734.323 323.673C748.989 305.239 764.024 287.038 778.286 268.289Z"
     id="path3" />
  <path
     fill="#FEFEFE"
     d="M741.021 215.605C743.375 218.225 745.328 225.375 746.986 228.925C751.853 239.346 758.334 248.625 766.625 256.582C761.177 264.934 754.094 272.813 747.837 280.599L722.389 312.919L623.345 438.115C620.386 435.982 617.419 434.203 614.11 432.658C592.408 422.524 569.625 421.308 547.057 429.589C521.736 438.88 506.228 458.173 495.334 481.967C487.852 480.732 480.48 478.716 473.092 477.012L433.254 467.79L388.449 457.132C377.556 454.656 366.603 452.616 355.779 449.824C347.844 448.343 339.925 446.213 332.055 444.395C317.204 440.92 302.326 437.56 287.424 434.313C288.65 419.592 287.366 404.77 283.627 390.478C294.514 384.607 306.966 381.042 318.494 376.583L402.294 344.948L591.72 272.605L675.022 240.872C697.078 232.641 719.512 225.205 741.021 215.605Z"
     id="path4" />
  <path
     fill="#FEFEFE"
     d="M285.013 449.895L422.507 482.183L468.534 492.63C475.933 494.313 484.464 495.461 491.455 498.331C490.027 511.89 490.306 524.46 494.693 537.497C502.089 559.477 517.537 578.756 538.493 589.093C560.737 600.064 583.333 600.083 606.484 592.213C611.959 604.452 618.095 616.254 624.016 628.268C631.948 644.735 640.04 661.126 648.29 677.437C653.266 687.407 657.771 697.596 662.562 707.654L679.021 741.494C684.203 752.369 696.131 772.537 699.124 783.026C691.332 787.55 685.246 792.494 679.334 799.294C677.691 801.079 676.308 803.037 674.881 804.994C663.478 796.009 651.608 787.662 640.057 778.876L548.655 709.61L360.799 568.471L296.801 520.932C285.384 512.467 273.826 504.25 262.622 495.497C274.324 478.97 279.227 469.268 285.013 449.895Z"
     id="path5" />
  <path
     fill="#FEFEFE"
     d="M844.515 78.2118C899.775 74.4797 947.58 116.291 951.24 171.556C954.899 226.821 913.025 274.571 857.755 278.158C802.588 281.739 754.946 239.959 751.293 184.796C747.641 129.634 789.358 81.937 844.515 78.2118Z"
     id="path6" />
  <path
     fill="#3D3D3D"
     d="M850.19 97.1633C895.005 96.7253 931.725 132.63 932.294 177.443C932.862 222.257 897.065 259.081 852.253 259.781C807.257 260.483 770.247 224.505 769.676 179.506C769.105 134.508 805.19 97.603 850.19 97.1633Z"
     id="path7" />
  <path
     fill="#3B8FC4"
     d="M848.598 112.721C884.741 111.425 915.123 139.608 916.542 175.746C917.961 211.885 889.881 242.363 853.748 243.905C817.44 245.454 786.783 217.209 785.357 180.897C783.932 144.584 812.28 114.023 848.598 112.721Z"
     id="path8" />
  <path
     fill="#FEFEFE"
     d="M166.046 323.325C221.245 319.643 268.966 361.434 272.598 416.637C276.23 471.841 234.396 519.524 179.19 523.106C124.053 526.684 76.4441 484.914 72.8168 429.781C69.1894 374.648 110.916 327.001 166.046 323.325Z"
     id="path9" />
  <path
     fill="#3D3D3D"
     d="M168.563 342.579C213.268 340.139 251.475 374.428 253.865 419.135C256.256 463.843 221.925 502.011 177.215 504.353C132.575 506.69 94.4791 472.424 92.0919 427.787C89.7048 383.149 123.929 345.016 168.563 342.579Z"
     id="path10" />
  <path
     fill="#3B8FC4"
     d="M167.817 358.665C203.832 355.802 235.318 382.747 238.052 418.771C240.787 454.796 213.729 486.185 177.696 488.791C141.843 491.384 110.647 464.492 107.926 428.65C105.205 392.807 131.985 361.514 167.817 358.665Z"
     id="path11" />
  <path
     fill="#FEFEFE"
     d="M740.632 785.298C781.851 782.044 817.892 812.845 821.1 854.066C824.309 895.288 793.468 931.295 752.243 934.458C711.082 937.616 675.144 906.834 671.94 865.677C668.737 824.519 699.479 788.547 740.632 785.298Z"
     id="path12" />
  <path
     fill="#3B8FC4"
     d="M570.831 441.37C609.527 438.053 643.548 466.82 646.708 505.53C649.867 544.239 620.962 578.143 582.24 581.145C543.74 584.131 510.073 555.427 506.931 516.939C503.789 478.452 532.356 444.668 570.831 441.37Z"
     id="path13" />
  <path
     fill="#3D3D3D"
     d="M240.622 771.326C243.026 772.247 246.519 776.576 248.62 778.49C254.927 784.235 261.764 789.321 268.053 795.049C265.072 799.247 261.419 803.116 258.259 807.216C248.03 799.372 239.027 791.446 230.597 781.661L240.622 771.326Z"
     id="path14" />
  <path
     fill="#3D3D3D"
     d="M151.859 594.021L167.263 593.799C167.305 603.853 168.724 613.371 169.978 623.304C170.176 624.868 170.793 627.082 170.222 628.503L168.392 629.048C163.985 630.112 159.555 631.072 155.104 631.93C152.356 620.455 151.575 605.815 151.859 594.021Z"
     id="path15" />
  <path
     fill="#3D3D3D"
     d="M582.874 168.698C589.349 171.977 604.457 189.306 610.574 195.404C607.5 198.113 604.169 200.603 600.974 203.172C599.902 204.001 599.213 204.563 597.872 204.904C595.673 204.19 578.076 184.157 574.025 180.281C577.095 176.423 580.475 173.06 582.874 168.698Z"
     id="path16" />
  <path
     fill="#3D3D3D"
     d="M526.373 129.578C537.961 134.129 548.906 142.084 559.336 148.836C556.836 152.973 553.653 156.65 551.135 160.8C550.706 161.632 551.029 161.313 550.133 161.722C540.513 154.925 530.371 149.094 520.248 143.097C522.365 138.625 524.407 134.118 526.373 129.578Z"
     id="path17" />
  <path
     fill="#3D3D3D"
     d="M296.727 135.975C298.361 136.536 303.365 146.736 304.651 148.873C293.68 154.048 283.636 161.973 273.929 169.145C271.275 164.732 267.977 160.964 264.636 157.075C273.435 148.628 286.222 142.019 296.727 135.975Z"
     id="path18" />
  <path
     fill="#3D3D3D"
     d="M460.263 108.263C472.35 109.834 485.683 113.224 496.959 117.848C495.722 122.257 493.765 126.515 492.255 130.851C492.279 131.819 492.391 131.339 491.818 132.264C480.571 128.57 468.927 125.075 457.263 122.958C458.391 118.064 458.977 113.156 460.263 108.263Z"
     id="path19" />
  <path
     fill="#3D3D3D"
     d="M176.881 658.607C177.229 658.993 187.578 687.938 189.076 691.81C184.302 693.696 179.476 695.484 174.94 697.905C170.084 686.418 165.394 674.816 162.406 662.685C167.293 661.541 172.078 660.057 176.881 658.607Z"
     id="path20" />
  <path
     fill="#3D3D3D"
     d="M359.737 111.093L360.481 111.35C361.658 116.194 362.484 121.153 363.431 126.048C357.569 127.756 351.639 129.386 345.858 131.349C341.22 132.925 335.282 136.077 330.483 136.497L324.886 122.039C336.657 119.027 347.763 113.537 359.737 111.093Z"
     id="path21" />
  <path
     fill="#3D3D3D"
     d="M404.539 104.206C412.777 103.371 421.312 103.887 429.584 104.133C428.806 109.071 428.418 114.07 427.945 119.046L415.627 119.009C407.927 118.886 400.21 119.839 392.489 119.84C391.944 114.986 391.438 110.238 391.491 105.343L404.539 104.206Z"
     id="path22" />
  <path
     fill="#3D3D3D"
     d="M202.191 719.513C203.257 719.933 220.048 745.409 222.15 748.449C221.816 748.677 221.485 748.91 221.149 749.135C217.182 751.794 213.557 754.823 209.867 757.846C202.798 747.146 195.871 737.238 189.922 725.803C193.908 723.562 198.117 721.599 202.191 719.513Z"
     id="path23" />
  <path
     fill="#3D3D3D"
     d="M241.443 178.395C245.052 181.877 248.546 185.474 251.922 189.182C247.212 193.785 232.023 212.997 228.384 215.142L216.674 206.183C224.053 196.255 233.002 187.419 241.443 178.395Z"
     id="path24" />
  <path
     fill="#3D3D3D"
     d="M199.198 232.726C203.805 235.095 208.308 237.784 212.68 240.557C207.208 250.627 202.756 260.952 198.325 271.505C193.593 269.648 188.976 267.546 184.344 265.457C188.65 254.067 193.999 243.687 199.198 232.726Z"
     id="path25" />
  <path
     fill="#3D3D3D"
     d="M348.514 839.146C358.972 843.089 370.555 844.044 380.838 848.404C379.525 852.868 379.311 857.928 377.542 862.198L376.384 862.363C365.017 860.025 354.309 857.052 343.39 853.096L348.514 839.146Z"
     id="path26" />
  <path
     fill="#3D3D3D"
     d="M291.187 812.198C300.744 818.149 310.87 823.038 321.055 827.803C318.653 832.498 317.006 837.865 314.282 842.302C303.713 836.916 293.215 831.116 283.255 824.662C285.633 820.34 288.777 816.515 291.187 812.198Z"
     id="path27" />
</svg>
